# xmcd CD database file
#
# Track frame offsets:
#	150
#	7512
#	49357
#	78325
#	107210
#	151537
#	172587
#	202182
#	225597
#	240465
#
# Disc length: 3634 seconds
#
# Revision: 0
# Processed by: cddbd v1.4PL0 Copyright (c) Steve Scherf et al.
# Submitted via: CDex 1.50Beta7
#
DISCID=640e300a
DTITLE=simakDialog - Baur
DYEAR=1999
DGENRE=Jazz
TTITLE0=du wangka
TTITLE1=getting closer
TTITLE2=the same old car
TTITLE3=no more flirt
TTITLE4=the tramp
TTITLE5=tak dinyana
TTITLE6=australia
TTITLE7=one has to be
TTITLE8=mahesa
TTITLE9=baur
EXTD=YEAR: 1999
EXTT0=
EXTT1=
EXTT2=
EXTT3=
EXTT4=
EXTT5=
EXTT6=
EXTT7=
EXTT8=
EXTT9=
PLAYORDER=
